HIERARCHY
ROOT Hips
{
	OFFSET 0.000000 0.000000 0.000000
	CHANNELS 6 Xposition Yposition Zposition Zrotation Yrotation Xrotation 
	JOINT LowerBack
	{
		OFFSET 0.000000 0.000000 0.000000
		CHANNELS 3 Zrotation Yrotation Xrotation
		JOINT Spine
		{
			OFFSET 0.028270 2.035590 -0.193380
			CHANNELS 3 Zrotation Yrotation Xrotation
			JOINT Spine1
			{
				OFFSET 0.056720 2.048850 -0.042750
				CHANNELS 3 Zrotation Yrotation Xrotation
				JOINT Neck
				{
					OFFSET 0.000000 0.000000 0.000000
					CHANNELS 3 Zrotation Yrotation Xrotation
					JOINT Neck1
					{
						OFFSET -0.054170 1.746240 0.172020
						CHANNELS 3 Zrotation Yrotation Xrotation
						JOINT Head
						{
							OFFSET 0.104070 1.761360 -0.123970
							CHANNELS 3 Zrotation Yrotation Xrotation
							End Site
							{
								OFFSET 0.000000 0.000000 0.000000
							}
						}
					}
				}
				JOINT LeftShoulder
				{
					OFFSET 0.000000 0.000000 0.000000
					CHANNELS 3 Zrotation Yrotation Xrotation
					JOINT LeftArm
					{
						OFFSET 3.362410 1.200890 -0.311210
						CHANNELS 3 Zrotation Yrotation Xrotation
						JOINT LeftForeArm
						{
							OFFSET 4.983000 -0.000000 -0.000000
							CHANNELS 3 Zrotation Yrotation Xrotation
							JOINT LeftHand
							{
								OFFSET 3.483560 -0.000000 -0.000000
								CHANNELS 3 Zrotation Yrotation Xrotation
								JOINT LeftFingerBase
								{
									OFFSET 0.000000 0.000000 0.000000
									CHANNELS 3 Zrotation Yrotation Xrotation
									JOINT LeftHandIndex1
									{
										OFFSET 0.715260 -0.000000 -0.000000
										CHANNELS 3 Zrotation Yrotation Xrotation
										End Site
										{
											OFFSET 0.000000 0.000000 0.000000
										}
									}
								}
								JOINT LThumb
								{
									OFFSET 0.000000 0.000000 0.000000
									CHANNELS 3 Zrotation Yrotation Xrotation
									End Site
									{
										OFFSET 0.000000 0.000000 0.000000
									}
								}
							}
						}
					}
				}
				JOINT RightShoulder
				{
					OFFSET 0.000000 0.000000 0.000000
					CHANNELS 3 Zrotation Yrotation Xrotation
					JOINT RightArm
					{
						OFFSET -3.136600 1.374050 -0.404650
						CHANNELS 3 Zrotation Yrotation Xrotation
						JOINT RightForeArm
						{
							OFFSET -5.241900 -0.000000 -0.000000
							CHANNELS 3 Zrotation Yrotation Xrotation
							JOINT RightHand
							{
								OFFSET -3.444170 -0.000000 -0.000000
								CHANNELS 3 Zrotation Yrotation Xrotation
								JOINT RightFingerBase
								{
									OFFSET 0.000000 0.000000 0.000000
									CHANNELS 3 Zrotation Yrotation Xrotation
									JOINT RightHandIndex1
									{
										OFFSET -0.622530 -0.000000 -0.000000
										CHANNELS 3 Zrotation Yrotation Xrotation
										End Site
										{
											OFFSET 0.000000 0.000000 0.000000
										}
									}
								}
								JOINT RThumb
								{
									OFFSET 0.000000 0.000000 0.000000
									CHANNELS 3 Zrotation Yrotation Xrotation
									End Site
									{
										OFFSET 0.000000 0.000000 0.000000
									}
								}
							}
						}
					}
				}
			}
		}
	}
}
}
MOTION
Frames: 9
Frame Time: 0.008333
3.680761 17.319669 1.034951 48.662841 -86.846681 -34.963393 0.075300 3.682724 -3.735628 0.468732 3.810979 -4.304792 1.743857 3.874712 -4.538261 -7.136137 4.115747 0.214979 -1.480994 -0.240130 2.239202 0.000000 0.000000 0.000000 5.042818 -0.454823 -3.212313 -91.800151 -13.245854 30.097479 179.462685 -47.094420 179.987129 -3.606551 -9.280478 0.371898 0.493372 1.138951 -0.000000 0.000000 0.000000 0.000000 0.000000 0.000000 0.000000 -15.875557 10.686785 2.062312 -14.262727 72.275239 -108.910388 -3.922575 7.011362 -0.086966 -13.934635 6.916796 -0.918168 0.213743 -0.468986 -0.000000 0.000000 0.000000 0.000000 0.000000 0.000000 0.000000 
3.674075 17.322796 1.031511 55.209286 -87.326277 -41.482464 0.049572 3.808794 -3.847816 0.512839 3.941890 -4.289809 1.975599 3.989031 -4.386294 -7.354512 4.216754 0.017066 -1.405130 -0.231996 2.185614 0.000000 0.000000 0.000000 5.319755 -0.394541 -3.287736 -92.066258 -12.577570 29.931428 179.194165 -46.731400 179.981893 -3.541253 -9.365349 0.369826 0.508154 1.131159 -0.000000 0.000000 0.000000 0.000000 0.000000 0.000000 0.000000 -16.362316 10.838867 2.419711 -16.012086 72.201800 -114.930676 -3.893109 5.445699 -0.085150 -13.848547 8.094771 -1.058539 0.201439 -0.476829 -0.000000 0.000000 0.000000 0.000000 0.000000 0.000000 0.000000 
3.665013 17.325202 1.030555 55.734104 -87.489960 -42.002950 0.025641 3.855987 -3.882006 0.480725 3.991434 -4.361787 1.904268 4.055389 -4.662949 -7.162938 3.799739 0.114653 -1.401341 -0.234485 2.219450 0.000000 0.000000 0.000000 5.863086 -0.535342 -3.208079 -92.267985 -11.853346 29.736251 179.019407 -46.512807 179.978137 -3.432449 -9.421992 0.362255 0.514309 1.131388 -0.000000 0.000000 0.000000 0.000000 0.000000 0.000000 0.000000 -16.398172 10.613706 1.694101 -10.192275 73.052254 -110.094425 -3.894059 5.776692 -0.084145 -13.345451 9.049297 -1.134545 0.180783 -0.491576 -0.000000 0.000000 0.000000 0.000000 0.000000 0.000000 0.000000 
3.654502 17.326739 1.032055 48.931573 -87.272817 -35.119251 0.041082 3.812586 -3.653598 0.334661 3.942038 -4.587258 1.386268 4.077875 -5.737638 -6.619010 2.930736 0.442299 -1.486070 -0.248283 2.327595 0.000000 0.000000 0.000000 6.714054 -0.672031 -2.927671 -92.339099 -10.970020 29.575718 179.004653 -46.373501 179.976265 -3.286980 -9.456533 0.349440 0.507476 1.137889 -0.000000 0.000000 0.000000 0.000000 0.000000 0.000000 0.000000 -16.154543 9.817357 -0.584960 7.910409 74.471957 -89.459667 -4.519304 8.253031 -0.085359 -12.524147 9.768965 -1.145551 0.147730 -0.513289 -0.000000 0.000000 0.000000 0.000000 0.000000 0.000000 0.000000 
3.642907 17.327079 1.035592 37.968632 -86.825167 -23.603184 0.624745 3.179884 -2.593819 0.222503 3.237270 -4.961506 0.387612 3.468384 -7.696998 -6.367734 1.831361 -0.357259 -1.816348 -0.255797 2.114270 0.000000 0.000000 0.000000 7.776496 1.243658 -2.668859 -92.100671 -9.436315 29.422589 178.999550 -45.371563 179.971415 -3.114691 -9.522934 0.332857 0.496205 1.103880 -0.000000 0.000000 0.000000 0.000000 0.000000 0.000000 0.000000 -15.367220 5.993744 -2.835509 44.149155 79.265164 -48.094794 -8.400971 12.804506 -0.110991 -12.050350 9.748655 -1.099941 0.057496 -0.581355 -0.000000 0.000000 0.000000 0.000000 0.000000 0.000000 0.000000 
3.630605 17.325983 1.040607 27.267890 -86.576011 -13.057612 1.021164 2.284181 -2.709850 0.421647 2.300167 -4.694674 0.427810 2.475948 -6.531165 -5.869706 0.867597 -1.300301 -2.166040 -0.256130 1.809777 0.000000 0.000000 0.000000 8.317543 2.439162 -2.923889 -92.076875 -8.714658 28.768592 178.564031 -44.504003 179.962833 -2.895935 -9.585786 0.315274 0.513638 1.071467 -0.000000 0.000000 0.000000 0.000000 0.000000 0.000000 0.000000 -12.699682 3.159038 -0.548228 65.332678 84.168919 -20.840327 -8.969803 16.592029 -0.141416 -12.318185 8.946581 -1.044334 0.018314 -0.682167 0.000000 0.000000 0.000000 0.000000 0.000000 0.000000 0.000000 
3.617447 17.323471 1.046479 19.414338 -86.044181 -5.623001 0.972346 1.910662 -3.171485 0.414056 1.925194 -4.662611 0.262385 2.080229 -6.043495 -4.793330 0.298103 -0.711820 -2.353287 -0.276104 1.964864 0.000000 0.000000 0.000000 9.007785 1.820398 -2.799581 -92.097715 -8.314737 28.186197 178.355645 -44.593548 179.959532 -2.666733 -9.597449 0.295440 0.516807 1.089636 0.000000 0.000000 0.000000 0.000000 0.000000 0.000000 0.000000 -10.883359 2.977172 -0.790864 67.633838 80.309509 -10.392507 -7.521972 23.352359 -0.162153 -12.947558 8.150322 -1.013427 0.016950 -0.743294 -0.000000 0.000000 0.000000 0.000000 0.000000 0.000000 0.000000 
3.603622 17.319599 1.052561 14.289658 -85.408228 -0.910662 0.822071 1.562381 -3.605242 0.387339 1.588105 -4.710824 0.084769 1.732347 -5.866654 -3.664995 0.204357 0.175224 -2.524277 -0.299858 2.208948 0.000000 0.000000 0.000000 9.603973 1.112651 -2.541871 -92.007186 -7.977666 27.610569 178.240586 -44.812417 179.957308 -2.414151 -9.599164 0.272556 0.513159 1.115992 0.000000 0.000000 0.000000 0.000000 0.000000 0.000000 0.000000 -9.203092 3.400472 -1.587105 65.655467 74.585773 -6.043085 -5.865374 32.535663 -0.175840 -13.344546 7.892252 -1.016486 0.001470 -0.775097 -0.000000 0.000000 0.000000 0.000000 0.000000 0.000000 0.000000 
3.588965 17.314431 1.058226 11.024187 -84.740470 1.977028 0.632857 1.177725 -4.003966 0.373190 1.219803 -4.739879 -0.057723 1.350425 -5.657829 -2.562914 0.457867 1.010490 -2.707361 -0.322158 2.434738 0.000000 0.000000 0.000000 10.045112 0.621193 -2.277880 -91.813064 -7.806211 27.060810 178.196244 -45.015920 179.955615 -2.142634 -9.597949 0.247261 0.503897 1.142233 0.000000 0.000000 0.000000 0.000000 0.000000 0.000000 0.000000 -7.419659 3.999755 -2.155902 63.789676 68.923806 -3.688183 -4.211364 43.037452 -0.178705 -13.216687 8.164219 -1.037191 -0.022784 -0.783797 -0.000000 0.000000 0.000000 0.000000 0.000000 0.000000 0.000000 
